<svg width="20" height="20" viewBox="0 0 20 20" fill="none" xmlns="http://www.w3.org/2000/svg">
<path d="M2.08333 17.7708C1.88218 17.7708 1.70871 17.7227 1.56291 17.6266C1.41709 17.5304 1.30584 17.4118 1.22916 17.2708C1.14351 17.1375 1.0978 16.9821 1.09202 16.8046C1.08623 16.6271 1.13194 16.4492 1.22916 16.2708L9.14583 2.60417C9.24305 2.4375 9.36877 2.31597 9.52298 2.23958C9.67717 2.16319 9.83689 2.125 10.0021 2.125C10.1674 2.125 10.3264 2.16319 10.4792 2.23958C10.6319 2.31597 10.7569 2.4375 10.8542 2.60417L18.7708 16.2708C18.8681 16.4492 18.9138 16.6271 18.908 16.8046C18.9022 16.9821 18.8565 17.1375 18.7708 17.2708C18.6917 17.4062 18.5799 17.5234 18.4353 17.6224C18.2907 17.7214 18.1178 17.7708 17.9167 17.7708H2.08333ZM10.087 15.0208C10.2731 15.0208 10.4371 14.9487 10.5789 14.8044C10.7207 14.6601 10.7917 14.495 10.7917 14.3089C10.7917 14.1227 10.7195 13.9622 10.5752 13.8274C10.431 13.6925 10.2658 13.625 10.0797 13.625C9.89357 13.625 9.7296 13.6937 9.58775 13.831C9.44591 13.9683 9.375 14.13 9.375 14.3161C9.375 14.5023 9.44714 14.6662 9.59141 14.8081C9.73569 14.9499 9.90088 15.0208 10.087 15.0208ZM10.087 12.75C10.2651 12.75 10.4132 12.6901 10.5312 12.5703C10.6493 12.4505 10.7083 12.3021 10.7083 12.125V8.875C10.7083 8.69792 10.6481 8.54948 10.5276 8.42969C10.4071 8.3099 10.2578 8.25 10.0797 8.25C9.90156 8.25 9.75347 8.3099 9.63541 8.42969C9.51736 8.54948 9.45833 8.69792 9.45833 8.875V12.125C9.45833 12.3021 9.51857 12.4505 9.63906 12.5703C9.75956 12.6901 9.90887 12.75 10.087 12.75Z" fill="#EC4242"/>
</svg>
