<svg width="14" height="14" viewBox="0 0 14 14" fill="none" xmlns="http://www.w3.org/2000/svg">
<path d="M3.20834 12.8333C2.96771 12.8333 2.76172 12.7477 2.59037 12.5763C2.41901 12.405 2.33334 12.199 2.33334 11.9583V5.62918C2.33334 5.38855 2.41901 5.18256 2.59037 5.01121C2.76172 4.83985 2.96771 4.75418 3.20834 4.75418H4.22917V3.35418C4.22917 2.58758 4.49948 1.93412 5.04009 1.39381C5.5807 0.8535 6.23452 0.583344 7.00155 0.583344C7.76857 0.583344 8.42188 0.8535 8.96146 1.39381C9.50104 1.93412 9.77084 2.58758 9.77084 3.35418V4.75418H10.7917C11.0323 4.75418 11.2383 4.83985 11.4096 5.01121C11.581 5.18256 11.6667 5.38855 11.6667 5.62918V11.9583C11.6667 12.199 11.581 12.405 11.4096 12.5763C11.2383 12.7477 11.0323 12.8333 10.7917 12.8333H3.20834ZM7.00245 9.91668C7.31193 9.91668 7.57604 9.80958 7.79479 9.59539C8.01354 9.3812 8.12292 9.12371 8.12292 8.82293C8.12292 8.53126 8.01273 8.26633 7.79234 8.02814C7.57196 7.78994 7.30703 7.67084 6.99755 7.67084C6.68808 7.67084 6.42396 7.78994 6.20521 8.02814C5.98646 8.26633 5.87709 8.53369 5.87709 8.83022C5.87709 9.12675 5.98728 9.38195 6.20766 9.59584C6.42804 9.80973 6.69298 9.91668 7.00245 9.91668ZM5.10417 4.75418H8.89584V3.35418C8.89584 2.82755 8.71169 2.37993 8.34339 2.0113C7.97508 1.64266 7.52786 1.45834 7.00172 1.45834C6.47558 1.45834 6.02778 1.64266 5.65834 2.0113C5.28889 2.37993 5.10417 2.82755 5.10417 3.35418V4.75418Z" fill="#606F7B"/>
</svg>
