<svg width="20" height="20" viewBox="0 0 20 20" fill="none" xmlns="http://www.w3.org/2000/svg">
<path d="M16.2917 14.1042L13.2083 11C13.3194 10.8333 13.4028 10.6111 13.4583 10.3333C13.5139 10.0556 13.5417 9.80556 13.5417 9.58334C13.5417 8.59722 13.1979 7.76042 12.5104 7.07292C11.8229 6.38542 10.9861 6.04167 10 6.04167C9.76389 6.04167 9.52084 6.06945 9.27084 6.125C9.02084 6.18056 8.79167 6.26389 8.58334 6.375L5.89584 3.6875C6.38195 3.46528 7.02431 3.27084 7.82292 3.10417C8.62153 2.9375 9.38195 2.85417 10.1042 2.85417C12.0069 2.85417 13.7882 3.375 15.4479 4.41667C17.1076 5.45834 18.3958 6.91667 19.3125 8.79167C19.3681 8.90278 19.4063 9.02778 19.4271 9.16667C19.4479 9.30556 19.4583 9.44445 19.4583 9.58334C19.4583 9.72222 19.4479 9.86459 19.4271 10.0104C19.4063 10.1563 19.3681 10.2778 19.3125 10.375C18.9375 11.125 18.4931 11.8125 17.9792 12.4375C17.4653 13.0625 16.9028 13.6181 16.2917 14.1042ZM16.2708 18.3125L13.6042 15.6875C13.1181 15.8819 12.5625 16.0347 11.9375 16.1458C11.3125 16.2569 10.6667 16.3125 10 16.3125C8.04167 16.3125 6.23264 15.7882 4.57292 14.7396C2.9132 13.691 1.61806 12.2292 0.687505 10.3542C0.63195 10.2431 0.593755 10.1215 0.572922 9.98959C0.552088 9.85764 0.541672 9.72222 0.541672 9.58334C0.541672 9.44445 0.555561 9.29861 0.583338 9.14584C0.611116 8.99306 0.645838 8.86806 0.687505 8.77084C0.979172 8.1875 1.34376 7.60764 1.78126 7.03125C2.21876 6.45486 2.72223 5.89584 3.29167 5.35417L1.27084 3.33334C1.11806 3.19445 1.04167 3.02431 1.04167 2.82292C1.04167 2.62153 1.11806 2.45139 1.27084 2.3125C1.40973 2.15972 1.58334 2.08334 1.79167 2.08334C2.00001 2.08334 2.18056 2.15972 2.33334 2.3125L17.3125 17.2917C17.4514 17.4306 17.5139 17.5972 17.5 17.7917C17.4861 17.9861 17.4236 18.1528 17.3125 18.2917C17.1736 18.4583 17 18.5417 16.7917 18.5417C16.5833 18.5417 16.4097 18.4653 16.2708 18.3125ZM10 13.125C10.1528 13.125 10.316 13.1076 10.4896 13.0729C10.6632 13.0382 10.8056 12.9931 10.9167 12.9375L6.60417 8.66667C6.56251 8.79167 6.52778 8.9375 6.50001 9.10417C6.47223 9.27084 6.45834 9.43056 6.45834 9.58334C6.45834 10.5833 6.80556 11.4236 7.50001 12.1042C8.19445 12.7847 9.02778 13.125 10 13.125ZM11.7083 9.5L10.1875 7.97917C10.5903 7.72917 11.0139 7.77084 11.4583 8.10417C11.9028 8.4375 11.9861 8.90278 11.7083 9.5Z" fill="#8795A1"/>
</svg>
