<svg width="20" height="20" viewBox="0 0 20 20" fill="none" xmlns="http://www.w3.org/2000/svg">
<path d="M16.2917 14.1042L13.2083 11C13.3194 10.8333 13.4028 10.6111 13.4583 10.3333C13.5139 10.0556 13.5417 9.80555 13.5417 9.58333C13.5417 8.59722 13.1979 7.76041 12.5104 7.07291C11.8229 6.38541 10.9861 6.04166 9.99999 6.04166C9.76388 6.04166 9.52082 6.06944 9.27082 6.125C9.02082 6.18055 8.79166 6.26388 8.58332 6.375L5.89582 3.68749C6.38193 3.46527 7.0243 3.27083 7.82291 3.10416C8.62152 2.93749 9.38193 2.85416 10.1042 2.85416C12.0069 2.85416 13.7882 3.37499 15.4479 4.41666C17.1076 5.45833 18.3958 6.91666 19.3125 8.79166C19.368 8.90277 19.4062 9.02777 19.4271 9.16666C19.4479 9.30555 19.4583 9.44444 19.4583 9.58333C19.4583 9.72222 19.4479 9.86458 19.4271 10.0104C19.4062 10.1562 19.368 10.2778 19.3125 10.375C18.9375 11.125 18.493 11.8125 17.9792 12.4375C17.4653 13.0625 16.9028 13.6181 16.2917 14.1042ZM16.2708 18.3125L13.6042 15.6875C13.118 15.8819 12.5625 16.0347 11.9375 16.1458C11.3125 16.2569 10.6667 16.3125 9.99999 16.3125C8.04166 16.3125 6.23263 15.7882 4.57291 14.7396C2.91318 13.691 1.61805 12.2292 0.68749 10.3542C0.631934 10.2431 0.59374 10.1215 0.572906 9.98958C0.552073 9.85763 0.541656 9.72222 0.541656 9.58333C0.541656 9.44444 0.555545 9.29861 0.583323 9.14583C0.611101 8.99305 0.645823 8.86805 0.68749 8.77083C0.979157 8.1875 1.34374 7.60763 1.78124 7.03125C2.21874 6.45486 2.72221 5.89583 3.29166 5.35416L1.27082 3.33333C1.11805 3.19444 1.04166 3.0243 1.04166 2.82291C1.04166 2.62152 1.11805 2.45138 1.27082 2.31249C1.40971 2.15972 1.58332 2.08333 1.79166 2.08333C1.99999 2.08333 2.18055 2.15972 2.33332 2.31249L17.3125 17.2917C17.4514 17.4306 17.5139 17.5972 17.5 17.7917C17.4861 17.9861 17.4236 18.1528 17.3125 18.2917C17.1736 18.4583 17 18.5417 16.7917 18.5417C16.5833 18.5417 16.4097 18.4653 16.2708 18.3125ZM9.99999 13.125C10.1528 13.125 10.316 13.1076 10.4896 13.0729C10.6632 13.0382 10.8055 12.9931 10.9167 12.9375L6.60416 8.66666C6.56249 8.79166 6.52777 8.9375 6.49999 9.10416C6.47221 9.27083 6.45832 9.43055 6.45832 9.58333C6.45832 10.5833 6.80555 11.4236 7.49999 12.1042C8.19443 12.7847 9.02777 13.125 9.99999 13.125ZM11.7083 9.5L10.1875 7.97916C10.5903 7.72916 11.0139 7.77083 11.4583 8.10416C11.9028 8.4375 11.9861 8.90277 11.7083 9.5Z" fill="#22292F"/>
</svg>
