<svg width="20" height="20" viewBox="0 0 20 20" fill="none" xmlns="http://www.w3.org/2000/svg">
<path d="M10.0025 13.125C10.9869 13.125 11.8229 12.7804 12.5104 12.0913C13.1979 11.4022 13.5417 10.5654 13.5417 9.58088C13.5417 8.59641 13.1971 7.76042 12.508 7.07292C11.8188 6.38542 10.982 6.04167 9.99755 6.04167C9.01307 6.04167 8.17709 6.38624 7.48959 7.07538C6.80209 7.7645 6.45834 8.60131 6.45834 9.58579C6.45834 10.5703 6.80291 11.4063 7.49205 12.0938C8.18117 12.7813 9.01798 13.125 10.0025 13.125ZM9.99511 11.9167C9.3456 11.9167 8.79514 11.6893 8.34375 11.2347C7.89237 10.78 7.66667 10.2279 7.66667 9.57844C7.66667 8.92893 7.894 8.37847 8.34865 7.92709C8.80332 7.4757 9.3554 7.25 10.0049 7.25C10.6544 7.25 11.2049 7.47733 11.6563 7.93198C12.1076 8.38665 12.3333 8.93873 12.3333 9.58823C12.3333 10.2377 12.106 10.7882 11.6514 11.2396C11.1967 11.691 10.6446 11.9167 9.99511 11.9167ZM10 15.8333C8.08334 15.8333 6.33681 15.3125 4.76042 14.2708C3.18403 13.2292 1.96629 11.8536 1.10719 10.1442C1.06351 10.0759 1.03126 9.99185 1.01042 9.89221C0.989588 9.79257 0.979172 9.68961 0.979172 9.58334C0.979172 9.47706 0.989588 9.3741 1.01042 9.27446C1.03126 9.17482 1.06351 9.09082 1.10719 9.02244C1.96629 7.31304 3.18403 5.9375 4.76042 4.89584C6.33681 3.85417 8.08334 3.33334 10 3.33334C11.9167 3.33334 13.6632 3.85417 15.2396 4.89584C16.816 5.9375 18.0337 7.31304 18.8928 9.02244C18.9365 9.09082 18.9688 9.17482 18.9896 9.27446C19.0104 9.3741 19.0208 9.47706 19.0208 9.58334C19.0208 9.68961 19.0104 9.79257 18.9896 9.89221C18.9688 9.99185 18.9365 10.0759 18.8928 10.1442C18.0337 11.8536 16.816 13.2292 15.2396 14.2708C13.6632 15.3125 11.9167 15.8333 10 15.8333Z" fill="#22292F"/>
</svg>
